<svg width="89" height="78" viewBox="0 0 89 78" fill="none" xmlns="http://www.w3.org/2000/svg">
<path d="M0 11.1429V66.8571C0 72.9857 5.00625 78 11.125 78H77.875C83.9938 78 89 72.9857 89 66.8571V11.1429C89 5.01429 83.9938 0 77.875 0H11.125C5.00625 0 0 5.01429 0 11.1429ZM77.875 22.2857C77.875 28.4394 72.8938 33.4286 66.75 33.4286C60.6062 33.4286 55.625 28.4394 55.625 22.2857C55.625 16.1321 60.6062 11.1429 66.75 11.1429C72.8938 11.1429 77.875 16.1321 77.875 22.2857ZM11.125 61.2857C11.125 59.241 11.8203 58.3858 13.8478 55.7143L27.8125 36.8661C29.1169 35.256 30.6383 33.4286 33.375 33.4286C36.2007 33.4286 37.3717 35.0526 38.9375 37.0277L50.0625 51.6527L55.625 47.3571C57.494 45.8779 58.9291 44.5714 61.1875 44.5714C63.4459 44.5714 64.7503 45.6606 66.75 47.6608L74.7461 55.7143C76.9183 57.9345 77.875 59.1101 77.875 61.2857C77.875 64.3751 75.3969 66.8571 72.3125 66.8571H16.6875C13.5586 66.8571 11.125 64.4196 11.125 61.2857Z" fill="#333333"/>
</svg>
