<svg width="30" height="31" viewBox="0 0 30 31" fill="none" xmlns="http://www.w3.org/2000/svg">
<path id="Vector" fill-rule="evenodd" clip-rule="evenodd" d="M3.43517 1.64457C5.62567 -1.06544e-06 8.75051 -9.28845e-07 15 -6.55672e-07C21.2496 -3.82494e-07 24.3743 -2.45906e-07 26.5649 1.64458C27.2723 2.1757 27.8945 2.81859 28.4085 3.54962C30 5.81319 30 9.04213 30 15.5C30 21.9578 30 25.1868 28.4085 27.4503C27.8945 28.1814 27.2723 28.8243 26.5649 29.3554C24.3743 31 21.2496 31 15 31C8.75051 31 5.62567 31 3.43517 29.3554C2.72767 28.8243 2.1055 28.1814 1.5915 27.4503C2.71375e-06 25.1868 9.47542e-07 21.9578 1.22982e-06 15.5C1.5121e-06 9.04213 3.56059e-06 5.81319 1.5915 3.54962C2.1055 2.81859 2.72767 2.1757 3.43517 1.64457ZM12.5465 25.0285C12.0562 25.5307 11.2648 25.5271 10.7788 25.0204C10.2928 24.5138 10.2963 23.6959 10.7867 23.1937L13.725 20.1844C14.9175 18.9632 15.7355 18.1226 16.289 17.4105C16.8267 16.7186 17.0111 16.2743 17.0602 15.8763C17.091 15.6264 17.091 15.3736 17.0602 15.1237C17.0111 14.7257 16.8267 14.2814 16.289 13.5896C15.7355 12.8774 14.9175 12.0369 13.725 10.8156L10.7867 7.8063C10.2963 7.30413 10.2928 6.4863 10.7788 5.97962C11.2648 5.47295 12.0562 5.46931 12.5465 5.97148L15.5378 9.03495C16.6644 10.1887 17.5852 11.1317 18.2382 11.972C18.9173 12.8457 19.4088 13.7325 19.5402 14.7971C19.5977 15.2638 19.5977 15.7362 19.5402 16.2029C19.4088 17.2675 18.9173 18.1543 18.2382 19.028C17.5852 19.8682 16.6644 20.8113 15.5378 21.965L12.5465 25.0285Z" fill="#00E676"/>
</svg>
