<svg width="15" height="15" viewBox="0 0 15 15" fill="none" xmlns="http://www.w3.org/2000/svg">
<g id="Glyph" clip-path="url(#clip0_162_439)">
<path id="Vector" d="M10.7597 7.50035C10.7597 7.50035 14.3206 3.93919 14.3234 3.93643C15.2491 3.01069 15.2013 1.45636 14.2273 0.585371C13.3168 -0.228988 11.8982 -0.158722 10.9973 0.743073L7.49996 4.24061L4.00264 0.743068C3.10086 -0.158718 1.68272 -0.228993 0.772688 0.585343C-0.20032 1.45603 -0.246239 3.01391 0.676533 3.9362L4.24022 7.49989C4.24022 7.49989 0.681825 11.0585 0.676538 11.0638C-0.225923 11.9663 -0.186867 13.537 0.75069 14.395C1.64653 15.2153 3.11412 15.1457 4.02095 14.2389L7.49996 10.7599L10.979 14.2389C11.873 15.1337 13.3923 15.2329 14.3183 14.3291C15.2204 13.4485 15.2085 11.9489 14.3234 11.0638L10.7597 7.50035Z" fill="white"/>
</g>
<defs>
<clipPath id="clip0_162_439">
<rect width="15" height="15" fill="white"/>
</clipPath>
</defs>
</svg>
