<svg width="21" height="22" viewBox="0 0 21 22" fill="none" xmlns="http://www.w3.org/2000/svg">
<path id="Vector" fill-rule="evenodd" clip-rule="evenodd" d="M2.40462 1.16712C3.93797 -7.45805e-07 6.12536 -6.50191e-07 10.5 -4.5897e-07C14.8747 -2.67746e-07 17.062 -1.72134e-07 18.5954 1.16712C19.0906 1.54405 19.5261 2.00029 19.8859 2.51909C21 4.12549 21 6.417 21 11C21 15.583 21 17.8745 19.8859 19.4809C19.5261 19.9997 19.0906 20.456 18.5954 20.8329C17.062 22 14.8747 22 10.5 22C6.12535 22 3.93797 22 2.40462 20.8329C1.90937 20.456 1.47385 19.9997 1.11405 19.4809C1.12603e-06 17.8745 1.2262e-06 15.583 1.42652e-06 11C1.62685e-06 6.417 1.72702e-06 4.12549 1.11405 2.51908C1.47385 2.00029 1.90937 1.54404 2.40462 1.16712ZM8.78256 17.7622C8.43932 18.1186 7.88539 18.116 7.54519 17.7564C7.20499 17.3969 7.20744 16.8164 7.55067 16.46L9.60751 14.3244C10.4423 13.4578 11.0148 12.8612 11.4023 12.3558C11.7787 11.8648 11.9078 11.5495 11.9421 11.2671C11.9637 11.0897 11.9637 10.9103 11.9421 10.7329C11.9078 10.4505 11.7787 10.1352 11.4023 9.6442C11.0148 9.13877 10.4423 8.54228 9.60751 7.67556L7.55067 5.53995C7.20744 5.18358 7.20499 4.60318 7.54519 4.2436C7.88539 3.88403 8.43933 3.88145 8.78256 4.23782L10.8765 6.4119C11.6651 7.2307 12.3097 7.89994 12.7668 8.49623C13.2421 9.1163 13.5862 9.74567 13.6781 10.5011C13.7184 10.8324 13.7184 11.1676 13.6781 11.4989C13.5862 12.2544 13.2421 12.8837 12.7668 13.5037C12.3097 14.1 11.6651 14.7693 10.8765 15.5881L8.78256 17.7622Z" fill="#F5F5F5"/>
</svg>
